<svg id="Capa_1" enable-background="new 0 0 512 512" height="512" viewBox="0 0 512 512" width="512" xmlns="http://www.w3.org/2000/svg" xmlns:xlink="http://www.w3.org/1999/xlink"><linearGradient id="SVGID_1_" gradientUnits="userSpaceOnUse" x1="256" x2="256" y1="451" y2="61"><stop offset="0" stop-color="#5558ff"/><stop offset="1" stop-color="#00c0ff"/></linearGradient><g><g><path d="m244.477 325.603c2.85 3.42 7.071 5.397 11.523 5.397s8.674-1.978 11.523-5.397l75-90c3.726-4.471 4.529-10.694 2.061-15.965s-7.764-8.638-13.584-8.638h-30v-135c0-8.284-6.716-15-15-15h-60c-8.284 0-15 6.716-15 15v135h-30c-5.82 0-11.115 3.367-13.584 8.638s-1.665 11.494 2.061 15.965zm-18.477-84.603c8.284 0 15-6.716 15-15v-135h30v135c0 8.284 6.716 15 15 15h12.975l-42.975 51.569-42.975-51.569zm271 60h-121c-5.682 0-10.876 3.21-13.416 8.292l-25.855 51.708h-161.458l-25.854-51.708c-2.541-5.082-7.735-8.292-13.417-8.292h-121c-8.284 0-15 6.716-15 15v120c0 8.284 6.716 15 15 15h482c8.284 0 15-6.716 15-15v-120c0-8.284-6.716-15-15-15zm-15 120h-452v-90h96.729l25.854 51.708c2.541 5.082 7.735 8.292 13.417 8.292h180c5.682 0 10.876-3.21 13.416-8.292l25.855-51.708h96.729z" fill="url(#SVGID_1_)"/></g></g></svg>